
<svg version="1.0" xmlns="http://www.w3.org/2000/svg"
 width="270.000000pt" height="187.000000pt" viewBox="0 0 270.000000 187.000000"
 preserveAspectRatio="xMidYMid meet">

<g transform="translate(0.000000,187.000000) scale(0.100000,-0.100000)"
fill="#000000" stroke="none">
<path d="M887 1842 c-11 -12 -17 -36 -17 -66 0 -65 -27 -188 -57 -266 -40
-100 -89 -176 -167 -258 -145 -152 -314 -236 -510 -250 -81 -6 -91 -9 -109
-33 -38 -52 9 -99 101 -99 183 0 393 -98 538 -252 128 -135 206 -306 220 -478
7 -96 23 -130 59 -130 45 0 59 38 52 138 -12 165 -85 352 -190 490 -50 64
-163 174 -220 212 -20 14 -37 27 -37 30 0 3 472 4 1050 2 1040 -2 1050 -2
1070 18 26 26 25 46 -5 75 l-24 25 -1053 0 -1053 0 56 38 c143 96 232 197 304
346 54 111 84 221 92 344 5 80 4 95 -12 112 -23 25 -67 26 -88 2z"/>
</g>
</svg>
